# xmcd
#
# Track frame offsets:
#	150
#	12782
#	24565
#	37738
#	48946
#	62109
#	73345
#	85784
#	98223
#	108784
#
# Disc length: 1622 seconds
#
# Revision: 2
# Processed by: cddbd v1.5.2PL0 Copyright (c) Steve Scherf et al.
# Submitted via: audiograbber 1.81.03
#
DISCID=7406540a
DTITLE=Various Artist - GOLDEN HITS COLLECTION
DYEAR=1900
DGENRE=Oldies
TTITLE0=Percy Sledge - When a man loves awoman
TTITLE1=The Platters - Only you
TTITLE2=Ben E. King - Spanish Harlem
TTITLE3=Paul and Paula - Hey Paula
TTITLE4=Fredy Fender - Wasted days and wasted nights
TTITLE5=The Drifters - This magic moment
TTITLE6=The Shirelles - Will you love me tomorrow
TTITLE7=Vic dana - Red roses for a blue lady
TTITLE8=Luis Armstrong - What a wonderful world
TTITLE9=Percy Sledge - My special prayer
EXTD=
EXTT0=
EXTT1=
EXTT2=
EXTT3=
EXTT4=
EXTT5=
EXTT6=
EXTT7=
EXTT8=
EXTT9=
PLAYORDER=
